# xmcd
#
# Track frame offsets: 
#        150
#        12072
#        23422
#        40835
#        94497
#        102472
#        107322
#        118087
#        130299
#
# Disc length: 1813 seconds
#
# Revision: 0
# Processed by: cddbd v1.5.2PL0 Copyright (c) Steve Scherf et al.
# Submitted via: ExactAudioCopy v0.95b3
#
DISCID=68071309
DTITLE=The Beatles  - Way Beyond Compare - Episode 03 The Quarry Men P
DTITLE=art 3 (July 1960)  FLAC
DYEAR=1900
DGENRE=
TTITLE0=Hallelujah I Love Her So
TTITLE1=One After 909 - Take 1
TTITLE2=Movin' And Groovin'_Ramrod
TTITLE3=Instrumental #1
TTITLE4=You'll Be Mine
TTITLE5=Unknown_Matchbox
TTITLE6=I'll Always Be In Love With You
TTITLE7=The World Is Waiting For The Sunrise
TTITLE8=That's When Your Heartaches Begin
EXTD=
EXTT0=
EXTT1=
EXTT2=
EXTT3=
EXTT4=
EXTT5=
EXTT6=
EXTT7=
EXTT8=
PLAYORDER=
